<svg width="37" height="37" viewBox="0 0 37 37" fill="none" xmlns="http://www.w3.org/2000/svg">
<g id="logo">
<path id="path" fill-rule="evenodd" clip-rule="evenodd" d="M25.3091 30.0279C28.7715 30.7845 32.2452 31.679 35.9997 36.3789C36.3332 36.796 35.8239 37.2139 35.4413 36.877C31.6204 33.5222 28.1683 32.4408 24.9868 32.4408C21.4451 32.4408 19.0322 32.9096 16.6004 32.9096C7.43244 32.9096 0 25.5417 0 16.4539C0 7.36781 7.43244 0 16.6004 0C25.7692 0 33.2008 7.36695 33.2008 16.4539C33.2052 19.4315 32.3924 22.3531 30.8509 24.9006C30.8018 24.9808 30.6785 24.9523 30.6665 24.8601C30.0969 20.8169 27.6039 18.5884 23.9768 17.9387C23.6623 17.8818 23.6037 17.6896 24.0199 17.6543C25.1264 17.5595 26.7034 17.5759 27.5048 17.7189C27.553 17.3044 27.5737 16.8813 27.5737 16.4539C27.5737 10.4476 22.661 5.57713 16.6004 5.57713C10.5398 5.57713 5.62711 10.4468 5.62711 16.4539C5.62711 22.4619 10.5398 27.3316 16.6004 27.3316C16.7728 27.3316 16.9451 27.3333 17.1157 27.3255C16.9475 26.3547 16.8785 25.3692 16.9098 24.3844C16.9365 23.7209 17.0726 23.6296 17.3751 24.1457C18.8926 26.7396 21.0719 29.1033 25.3082 30.0279H25.3091ZM25.0273 25.9907C25.4323 25.9907 25.8571 26.1596 26.2225 26.4664C26.961 27.0851 27.1859 27.821 26.7947 28.3407C26.5775 28.625 26.226 28.7819 25.8037 28.7819C25.3901 28.7819 24.9678 28.6293 24.6748 28.3768C24.0027 27.7943 23.8054 26.8516 24.244 26.3156C24.4155 26.1062 24.6938 25.9907 25.0273 25.9907ZM28.7077 23.2987C29.3239 23.5296 29.566 24.4637 29.6298 24.8946C29.7384 25.6159 29.5092 25.914 29.2782 25.914C29.0266 25.914 28.7095 25.6219 28.3372 25.0454C27.9692 24.4766 27.8348 23.8217 28.0166 23.4925C28.1373 23.2745 28.3898 23.1789 28.7077 23.2987Z" fill="#FF8C00"/>
</g>
</svg>
