<svg width="155" height="57" viewBox="0 0 155 57" fill="none" xmlns="http://www.w3.org/2000/svg">
<g id="Group">
<path id="Vector" d="M102.935 11.996V38.45C102.935 38.869 102.621 39.1833 102.201 39.1833H96.8059C96.3868 39.1833 96.0725 38.869 96.0725 38.45V11.996C96.0725 11.5769 96.3868 11.2626 96.8059 11.2626H102.201C102.621 11.315 102.935 11.6293 102.935 11.996ZM145.052 11.315H139.028C138.713 11.315 138.451 11.5245 138.347 11.8388L133.58 27.5017L128.341 11.8388C128.236 11.5245 127.974 11.3674 127.66 11.3674H123.417C123.103 11.3674 122.841 11.5769 122.736 11.8388L117.498 27.5017L112.731 11.8388C112.626 11.5245 112.364 11.315 112.05 11.315H106.026C105.816 11.315 105.554 11.4198 105.449 11.6293C105.292 11.8388 105.292 12.0484 105.345 12.2579L114.25 38.7643C114.355 39.0786 114.617 39.2357 114.931 39.2357H119.75C120.064 39.2357 120.326 39.0262 120.431 38.7643L125.617 23.3109L130.803 38.7643C130.908 39.0786 131.17 39.2357 131.484 39.2357H136.304C136.618 39.2357 136.88 39.0262 136.985 38.7643L145.89 12.2579C145.942 12.0484 145.942 11.7864 145.785 11.6293C145.523 11.4198 145.314 11.315 145.052 11.315ZM154.167 11.315H148.771C148.352 11.315 148.038 11.6293 148.038 12.0484V38.5023C148.038 38.9214 148.352 39.2357 148.771 39.2357H154.167C154.586 39.2357 154.9 38.9214 154.9 38.5023V12.0484C154.9 11.6293 154.533 11.315 154.167 11.315ZM92.9819 38.2928C93.2962 38.6595 93.0342 39.1833 92.5628 39.1833H85.9624C85.7005 39.1833 85.4385 39.0786 85.2814 38.869L84.1813 37.507C81.8764 38.9738 79.1524 39.8643 76.2713 39.8643C68.2042 39.8643 61.6561 33.3163 61.6561 25.2492C61.6561 17.182 68.2042 10.634 76.2713 10.634C84.3385 10.634 90.8865 17.182 90.8865 25.2492C90.8865 28.1303 90.0483 30.8543 88.5816 33.1592L92.9819 38.2928ZM79.8334 32.4258L76.9523 28.9161C76.638 28.5494 76.8999 27.9731 77.3714 27.9731H83.4479C83.7622 27.135 83.9194 26.1921 83.9194 25.2492C83.9194 20.9013 80.6716 17.1296 76.2189 17.1296C71.7663 17.1296 68.5185 20.9013 68.5185 25.2492C68.5185 29.597 71.7663 33.3163 76.2189 33.3163C77.5285 33.3687 78.7334 33.002 79.8334 32.4258ZM44.9456 38.188C45.1027 39.2881 44.7361 39.7596 44.4217 39.7596C44.0551 39.7596 43.5836 39.2881 43.0074 38.45C42.4312 37.5594 42.2216 36.5641 42.5359 36.0927C42.6931 35.7784 43.1121 35.6212 43.5836 35.7784C44.4741 36.0927 44.8408 37.507 44.9456 38.188ZM39.7596 40.5453C40.8596 41.4882 41.2263 42.6407 40.6501 43.4265C40.3358 43.8455 39.8119 44.1075 39.1309 44.1075C38.5023 44.1075 37.8737 43.8979 37.4023 43.4788C36.407 42.5883 36.0927 41.1216 36.7737 40.3358C37.0356 40.0215 37.4547 39.8643 37.9785 39.8643C38.5547 39.8643 39.1833 40.1263 39.7596 40.5453ZM37.8737 49.7126C42.6931 49.7126 47.9315 51.3888 53.7461 56.5225C54.3224 57.0463 55.1081 56.4177 54.5843 55.7367C48.8744 48.5601 43.636 47.1981 38.3976 46.0457C31.9543 44.6313 28.6541 41.0168 26.3492 37.0356C25.8778 36.2498 25.6682 36.407 25.6682 37.4023C25.6158 38.6595 25.7206 40.2834 25.9825 41.9073C25.7206 41.9073 25.4587 41.9073 25.1968 41.9073C16.0296 41.9073 8.53861 34.4688 8.53861 25.2492C8.53861 16.0819 15.9772 8.591 25.1968 8.591C34.4164 8.591 41.8549 16.0296 41.8549 25.2492C41.8549 25.8778 41.8025 26.5588 41.7502 27.1874C40.5453 26.9778 38.1357 26.9255 36.4594 27.0826C35.8308 27.135 35.9355 27.4493 36.407 27.5017C41.9073 28.497 45.679 31.902 46.5695 38.0833C46.5695 38.2404 46.779 38.2928 46.8314 38.1357C49.0839 34.364 50.3935 29.9637 50.3935 25.1968C50.3935 11.315 39.131 0 25.1968 0C11.2626 0 0 11.2626 0 25.1968C0 39.0786 11.2626 50.3936 25.1968 50.3936C28.8637 50.4459 32.5305 49.7126 37.8737 49.7126Z" fill="#FF8C00"/>
</g>
</svg>
