<svg width="180" height="28" viewBox="0 0 180 28" fill="none" xmlns="http://www.w3.org/2000/svg">
<g id="logo">
<path id="path" d="M80.5 8.4999L84.3 5.6999H71.7V22.2999H84.3V19.4999H75.3V15.2999H82.9V12.4999H75.3V8.4999H80.5ZM64.8 8.4999L68.6 5.6999H54.2V22.2999H61.7C65.9 22.2999 68.3 20.3999 68.3 17.0999C68.3 13.8999 66.1 12.1999 62.1 12.1999H57.7V8.4999H64.8ZM61.6 14.8999C63.9 14.8999 64.9 15.6999 64.9 17.1999C64.9 18.6999 63.8 19.4999 61.6 19.4999H57.8V14.8999H61.6ZM94.4 5.6999H87.6V22.2999H91.2V17.5999H94.5C98.9 17.5999 101.6 15.2999 101.6 11.5999C101.6 7.8999 98.8 5.6999 94.4 5.6999ZM94.4 14.7999H91.2V8.3999H94.4C96.7 8.3999 98 9.4999 98 11.5999C97.9 13.6999 96.7 14.7999 94.4 14.7999ZM48.1 18.6999C47.1 19.1999 46.1 19.4999 45 19.4999C41.8 19.4999 39.4 17.1999 39.4 13.9999C39.4 10.7999 41.7 8.4999 45 8.4999C46.2 8.4999 47.3 8.8999 48.3 9.4999L50.9 7.5999L50.7 7.3999C49.2 6.0999 47.2 5.3999 44.9 5.3999C42.4 5.3999 40.2 6.1999 38.5 7.7999C36.9 9.3999 35.9 11.5999 36 13.8999C36 16.1999 36.9 18.3999 38.5 20.0999C40.2 21.6999 42.5 22.5999 44.8 22.4999C47.4 22.4999 49.6 21.5999 51.2 19.9999L48.9 18.2999L48.1 18.6999ZM156 12.4999H148.3V5.6999H144.7V22.2999H148.3V15.4999H156V22.2999H159.6V5.6999H156V12.4999ZM131.7 5.6999L124.5 22.2999H128.1L129.5 18.9999H137.1L138.5 22.2999H142.3L135.3 5.6999H131.7ZM130.7 16.1999L133.5 9.4999L136.1 16.1999H130.7ZM172.6 13.6999L179.1 5.6999H175L169.6 12.7999H167.6V5.6999H164V22.2999H167.6V15.5999H169.9L175.4 22.2999H180L172.6 13.6999ZM117 12.1999H112.6V8.4999H122V5.6999H109V22.2999H116.5C120.7 22.2999 123.1 20.3999 123.1 17.0999C123.2 13.8999 121 12.1999 117 12.1999ZM116.4 19.5999H112.6V14.9999H116.4C118.7 14.9999 119.7 15.7999 119.7 17.2999C119.8 18.7999 118.6 19.5999 116.4 19.5999Z" fill="#21A038"/>
<path id="path_2" d="M24.481 5.38135C25.1302 6.23198 25.6798 7.15611 26.1187 8.1352L13.6698 17.4355L8.46704 14.1302V10.1538L13.6698 13.4591L24.481 5.38135Z" fill="#21A038"/>
<path id="path_3" d="M3.15729 13.8494C3.15729 13.6709 3.16159 13.4937 3.17017 13.3175L0.0171718 13.1609C0.00644001 13.3893 3.81025e-06 13.6199 3.81025e-06 13.8526C-0.0013377 15.671 0.351574 17.4716 1.0385 19.1514C1.72543 20.8312 2.73284 22.3569 4.00296 23.6412L6.23946 21.3757C5.26177 20.3889 4.48617 19.2159 3.95722 17.9243C3.42828 16.6326 3.15643 15.2478 3.15729 13.8494Z" fill="url(#paint0_linear_1_8913)"/>
<path id="path_4" d="M13.6669 3.19932C13.8429 3.19932 14.0178 3.20585 14.1917 3.21455L14.3494 0.0180329C14.1234 0.0071567 13.8958 0.00171926 13.6669 0.00171926C11.8719 -0.000499225 10.0942 0.356646 8.43573 1.05265C6.7773 1.74865 5.27087 2.7698 4.00293 4.05746L6.23943 6.32406C7.21322 5.33289 8.37073 4.54656 9.64541 4.01031C10.9201 3.47406 12.2867 3.19844 13.6669 3.19932Z" fill="url(#paint1_linear_1_8913)"/>
<path id="path_5" d="M13.667 24.5008C13.491 24.5008 13.316 24.5008 13.1412 24.4867L12.9834 27.6821C13.2102 27.6937 13.4381 27.6995 13.667 27.6995C15.4613 27.7014 17.2382 27.344 18.8957 26.6478C20.5532 25.9516 22.0587 24.9303 23.3257 23.6427L21.0934 21.3772C20.1195 22.3678 18.9621 23.1537 17.6877 23.6898C16.4132 24.2258 15.0468 24.5015 13.667 24.5008Z" fill="url(#paint2_linear_1_8913)"/>
<path id="path_6" d="M19.5911 5.05746L22.2483 3.07255C19.8196 1.07944 16.788 -0.00553265 13.6628 2.12167e-05V3.19871C15.779 3.19605 17.8461 3.84418 19.5911 5.05746Z" fill="url(#paint3_linear_1_8913)"/>
<path id="path_7" d="M27.3329 13.8499C27.3346 13.0178 27.2628 12.1871 27.1182 11.3679L24.1767 13.5649C24.1767 13.6596 24.1767 13.7542 24.1767 13.8499C24.1775 15.338 23.8696 16.8098 23.2733 18.1697C22.6768 19.5295 21.8051 20.7472 20.7146 21.7438L22.8363 24.1203C24.254 22.8232 25.3869 21.2387 26.1616 19.4694C26.9363 17.7001 27.3353 15.7855 27.3329 13.8499Z" fill="#21A038"/>
<path id="path_8" d="M13.667 24.5014C12.1985 24.5019 10.7462 24.1898 9.4042 23.5854C8.06226 22.981 6.8605 22.0976 5.87677 20.9927L3.53296 23.1418C4.81268 24.5788 6.37614 25.7272 8.12196 26.5125C9.86777 27.2977 11.7569 27.7023 13.667 27.7V24.5014Z" fill="url(#paint4_linear_1_8913)"/>
<path id="path_9" d="M6.61938 5.9558L4.49877 3.57935C3.08064 4.8762 1.94732 6.46066 1.1723 8.22997C0.397285 9.99926 -0.00211296 11.9139 8.40637e-06 13.8497H3.1573C3.15665 12.3616 3.46451 10.8899 4.0609 9.53002C4.6573 8.17019 5.52895 6.95247 6.61938 5.9558Z" fill="url(#paint5_linear_1_8913)"/>
</g>
<defs>
<linearGradient id="paint0_linear_1_8913" x1="4.6415" y1="23.2421" x2="1.10907" y2="13.1661" gradientUnits="userSpaceOnUse">
<stop offset="0.14" stop-color="#F1E813"/>
<stop offset="0.3" stop-color="#E6E418"/>
<stop offset="0.58" stop-color="#C9DA26"/>
<stop offset="0.89" stop-color="#A2CC39"/>
</linearGradient>
<linearGradient id="paint1_linear_1_8913" x1="4.9044" y1="4.62303" x2="13.819" y2="1.27089" gradientUnits="userSpaceOnUse">
<stop offset="0.06" stop-color="#0FA7DF"/>
<stop offset="0.54" stop-color="#0098F8"/>
<stop offset="0.92" stop-color="#0290EA"/>
</linearGradient>
<linearGradient id="paint2_linear_1_8913" x1="12.7752" y1="25.769" x2="22.8352" y2="23.5265" gradientUnits="userSpaceOnUse">
<stop offset="0.12" stop-color="#A2CC39"/>
<stop offset="0.28" stop-color="#86C239"/>
<stop offset="0.87" stop-color="#219F38"/>
</linearGradient>
<linearGradient id="paint3_linear_1_8913" x1="13.0061" y1="1.07133" x2="21.6155" y2="3.69289" gradientUnits="userSpaceOnUse">
<stop offset="0.06" stop-color="#0290EA"/>
<stop offset="0.79" stop-color="#0C89CA"/>
</linearGradient>
<linearGradient id="paint4_linear_1_8913" x1="4.32496" y1="22.7524" x2="13.7049" y2="26.2115" gradientUnits="userSpaceOnUse">
<stop offset="0.13" stop-color="#F1E813"/>
<stop offset="0.3" stop-color="#EAE616"/>
<stop offset="0.53" stop-color="#D8DF1F"/>
<stop offset="0.8" stop-color="#BAD52D"/>
<stop offset="0.98" stop-color="#A2CC39"/>
</linearGradient>
<linearGradient id="paint5_linear_1_8913" x1="1.17621" y1="14.2369" x2="5.01741" y2="4.37726" gradientUnits="userSpaceOnUse">
<stop offset="0.07" stop-color="#A2CC39"/>
<stop offset="0.26" stop-color="#81C45E"/>
<stop offset="0.92" stop-color="#0FA7DF"/>
</linearGradient>
</defs>
</svg>
