<svg width="37" height="37" viewBox="0 0 37 37" fill="none" xmlns="http://www.w3.org/2000/svg">
<g id="logo">
<path id="path" fill-rule="evenodd" clip-rule="evenodd" d="M37 18.4996C37 28.717 28.7176 37 18.4996 37C8.28242 37 0 28.717 0 18.4996C0 8.28376 8.28242 5.50039e-06 18.4996 5.50039e-06C23.3973 -0.00377703 28.0979 1.94347 31.5815 5.41886C35.045 8.87383 36.9963 13.5838 37 18.4996Z" fill="#3C46FA"/>
<path id="path_2" fill-rule="evenodd" clip-rule="evenodd" d="M17.9744 29.8366C13.6327 29.6308 9.7901 26.9657 8.07637 22.9721C6.36264 18.9777 7.082 14.3441 9.92274 11.0692C10.2 10.7507 10.6811 10.7189 10.9973 10.9996C11.007 11.0079 11.0168 11.017 11.0258 11.0261L12.9913 12.9915C13.2648 13.2608 13.2873 13.695 13.0437 13.9916C11.0572 16.3889 10.8789 19.8235 12.6069 22.4175C14.3348 25.0154 17.56 26.1759 20.5468 25.2734C23.5329 24.3716 25.5771 21.6194 25.5779 18.4996C25.5734 16.8133 24.9604 15.1861 23.8537 13.9227C23.5936 13.6375 23.5936 13.1987 23.8537 12.9135L25.8619 10.9224C26.1474 10.6175 26.624 10.6039 26.9267 10.8922C26.9372 10.902 26.9469 10.9118 26.9567 10.9224C30.014 14.3131 30.7296 19.2372 28.7656 23.3715C26.8023 27.5058 22.5461 30.0552 17.9744 29.8358V29.8366Z" fill="white"/>
</g>
</svg>
