<svg width="35" height="35" viewBox="0 0 35 35" fill="none" xmlns="http://www.w3.org/2000/svg">
<g id="logo">
<path id="path" d="M30.9328 6.79883C31.753 7.87363 32.4475 9.04131 33.002 10.2784L17.2723 22.0297L10.6985 17.8533V12.829L17.2723 17.0053L30.9328 6.79883Z" fill="#21A038"/>
<path id="path_2" d="M3.98936 17.4996C3.98936 17.2741 3.99478 17.0502 4.00563 16.8275L0.0216972 16.6296C0.00813719 16.9182 4.8144e-06 17.2096 4.8144e-06 17.5036C-0.00169024 19.8012 0.444227 22.0764 1.31219 24.1988C2.18014 26.3213 3.45305 28.2492 5.05789 29.8719L7.8838 27.0094C6.64845 25.7624 5.66844 24.2804 5.0001 22.6483C4.33176 21.0163 3.98827 19.2665 3.98936 17.4996Z" fill="url(#paint0_linear_1_9045)"/>
<path id="path_3" d="M17.2687 4.04275C17.4911 4.04275 17.712 4.051 17.9317 4.06199L18.131 0.0230673C17.8455 0.0093248 17.5579 0.00245439 17.2687 0.00245439C15.0006 -0.00034875 12.7544 0.450918 10.6589 1.33034C8.56339 2.20977 6.65995 3.50003 5.05786 5.12704L7.88377 7.99098C9.11418 6.73859 10.5767 5.74504 12.1874 5.06746C13.798 4.38989 15.5248 4.04164 17.2687 4.04275Z" fill="url(#paint1_linear_1_9045)"/>
<path id="path_4" d="M17.2688 30.9573C17.0464 30.9573 16.8253 30.9573 16.6044 30.9394L16.405 34.977C16.6916 34.9916 16.9795 34.999 17.2688 34.999C19.5359 35.0014 21.7811 34.5498 23.8754 33.6701C25.9698 32.7905 27.872 31.5 29.4729 29.873L26.6524 27.0105C25.4217 28.2622 23.9593 29.2552 22.349 29.9325C20.7388 30.6099 19.0123 30.9582 17.2688 30.9573Z" fill="url(#paint2_linear_1_9045)"/>
<path id="path_5" d="M24.7542 6.39029L28.1116 3.88228C25.0429 1.36391 21.2123 -0.00699072 17.2635 2.68081e-05V4.04169C19.9374 4.03833 22.5493 4.85727 24.7542 6.39029Z" fill="url(#paint3_linear_1_9045)"/>
<path id="path_6" d="M34.5362 17.5001C34.5383 16.4486 34.4476 15.3991 34.2649 14.364L30.5482 17.14C30.5482 17.2596 30.5482 17.3791 30.5482 17.5001C30.5492 19.3804 30.1602 21.24 29.4067 22.9583C28.6531 24.6765 27.5516 26.2151 26.1737 27.4743L28.8546 30.4772C30.6459 28.8382 32.0774 26.8361 33.0561 24.6006C34.035 22.3649 34.5392 19.9458 34.5362 17.5001Z" fill="#21A038"/>
<path id="path_7" d="M17.2687 30.9578C15.4132 30.9584 13.5782 30.5641 11.8825 29.8004C10.1869 29.0367 8.66847 27.9206 7.42549 26.5244L4.46399 29.2399C6.08096 31.0557 8.05645 32.5066 10.2624 33.4989C12.4683 34.491 14.8553 35.0023 17.2687 34.9994V30.9578Z" fill="url(#paint4_linear_1_9045)"/>
<path id="path_8" d="M8.36383 7.52496L5.68437 4.52222C3.89251 6.16084 2.46051 8.16286 1.48124 10.3985C0.501985 12.634 -0.0026698 15.0533 1.06218e-05 17.4992H3.98937C3.98855 15.619 4.37753 13.7594 5.1311 12.0411C5.88468 10.3229 6.98604 8.78428 8.36383 7.52496Z" fill="url(#paint5_linear_1_9045)"/>
</g>
<defs>
<linearGradient id="paint0_linear_1_9045" x1="5.86471" y1="29.3676" x2="1.40135" y2="16.6363" gradientUnits="userSpaceOnUse">
<stop offset="0.14" stop-color="#F1E813"/>
<stop offset="0.3" stop-color="#E6E418"/>
<stop offset="0.58" stop-color="#C9DA26"/>
<stop offset="0.89" stop-color="#A2CC39"/>
</linearGradient>
<linearGradient id="paint1_linear_1_9045" x1="6.1969" y1="5.84165" x2="17.4609" y2="1.6061" gradientUnits="userSpaceOnUse">
<stop offset="0.06" stop-color="#0FA7DF"/>
<stop offset="0.54" stop-color="#0098F8"/>
<stop offset="0.92" stop-color="#0290EA"/>
</linearGradient>
<linearGradient id="paint2_linear_1_9045" x1="16.142" y1="32.5597" x2="28.8531" y2="29.7262" gradientUnits="userSpaceOnUse">
<stop offset="0.12" stop-color="#A2CC39"/>
<stop offset="0.28" stop-color="#86C239"/>
<stop offset="0.87" stop-color="#219F38"/>
</linearGradient>
<linearGradient id="paint3_linear_1_9045" x1="16.4337" y1="1.35366" x2="27.3121" y2="4.66611" gradientUnits="userSpaceOnUse">
<stop offset="0.06" stop-color="#0290EA"/>
<stop offset="0.79" stop-color="#0C89CA"/>
</linearGradient>
<linearGradient id="paint4_linear_1_9045" x1="5.46471" y1="28.7479" x2="17.3166" y2="33.1186" gradientUnits="userSpaceOnUse">
<stop offset="0.13" stop-color="#F1E813"/>
<stop offset="0.3" stop-color="#EAE616"/>
<stop offset="0.53" stop-color="#D8DF1F"/>
<stop offset="0.8" stop-color="#BAD52D"/>
<stop offset="0.98" stop-color="#A2CC39"/>
</linearGradient>
<linearGradient id="paint5_linear_1_9045" x1="1.48619" y1="17.9885" x2="6.33969" y2="5.53041" gradientUnits="userSpaceOnUse">
<stop offset="0.07" stop-color="#A2CC39"/>
<stop offset="0.26" stop-color="#81C45E"/>
<stop offset="0.92" stop-color="#0FA7DF"/>
</linearGradient>
</defs>
</svg>
