<svg width="23" height="23" viewBox="0 0 23 23" fill="none" xmlns="http://www.w3.org/2000/svg">
<g id="cryptocurrency-color:eth" clip-path="url(#clip0_1_8077)">
<g id="Group">
<path id="Vector" d="M11.5 23C17.8513 23 23 17.8513 23 11.5C23 5.14873 17.8513 0 11.5 0C5.14873 0 0 5.14873 0 11.5C0 17.8513 5.14873 23 11.5 23Z" fill="url(#paint0_linear_1_8077)"/>
<g id="Group_2">
<path id="Vector_2" d="M11.8579 2.875V9.25031L17.2464 11.6581L11.8579 2.875Z" fill="white" fill-opacity="0.602"/>
<path id="Vector_3" d="M11.8579 2.875L6.46875 11.6581L11.8579 9.25031V2.875Z" fill="white"/>
<path id="Vector_4" d="M11.8579 15.7896V20.1215L17.25 12.6616L11.8579 15.7896Z" fill="white" fill-opacity="0.602"/>
<path id="Vector_5" d="M11.8579 20.1215V15.7889L6.46875 12.6616L11.8579 20.1215Z" fill="white"/>
<path id="Vector_6" d="M11.8579 14.7868L17.2464 11.6581L11.8579 9.25171V14.7868Z" fill="white" fill-opacity="0.2"/>
<path id="Vector_7" d="M6.46875 11.6581L11.8579 14.7868V9.25171L6.46875 11.6581Z" fill="white" fill-opacity="0.602"/>
</g>
</g>
</g>
<defs>
<linearGradient id="paint0_linear_1_8077" x1="23" y1="11.1515" x2="-8.90595e-08" y2="11.1515" gradientUnits="userSpaceOnUse">
<stop stop-color="#09529A"/>
<stop offset="1" stop-color="#2D7BC6"/>
</linearGradient>
<clipPath id="clip0_1_8077">
<rect width="23" height="23" fill="white"/>
</clipPath>
</defs>
</svg>
