<svg width="21" height="21" viewBox="0 0 21 21" fill="none" xmlns="http://www.w3.org/2000/svg">
<g id="carbon:copy" opacity="0.8">
<path id="Vector" d="M18.375 6.5625V18.375H6.5625V6.5625H18.375ZM18.375 5.25H6.5625C6.2144 5.25 5.88056 5.38828 5.63442 5.63442C5.38828 5.88056 5.25 6.2144 5.25 6.5625V18.375C5.25 18.7231 5.38828 19.0569 5.63442 19.3031C5.88056 19.5492 6.2144 19.6875 6.5625 19.6875H18.375C18.7231 19.6875 19.0569 19.5492 19.3031 19.3031C19.5492 19.0569 19.6875 18.7231 19.6875 18.375V6.5625C19.6875 6.2144 19.5492 5.88056 19.3031 5.63442C19.0569 5.38828 18.7231 5.25 18.375 5.25Z" fill="white"/>
<path id="Vector_2" d="M2.625 11.8125H1.3125V2.625C1.3125 2.2769 1.45078 1.94306 1.69692 1.69692C1.94306 1.45078 2.2769 1.3125 2.625 1.3125H11.8125V2.625H2.625V11.8125Z" fill="white"/>
</g>
</svg>
